<svg width="12" height="12" viewBox="0 0 12 12" fill="none" xmlns="http://www.w3.org/2000/svg">
<g clip-path="url(#clip0_80_110)">
<path d="M6 4C6.27614 4 6.5 3.77614 6.5 3.5C6.5 3.22386 6.27614 3 6 3C5.72386 3 5.5 3.22386 5.5 3.5C5.5 3.77614 5.72386 4 6 4Z" fill="#9EACCE"/>
<path d="M5.5 5H6V8.5M11 6C11 8.7614 8.7614 11 6 11C3.23857 11 1 8.7614 1 6C1 3.23857 3.23857 1 6 1C8.7614 1 11 3.23857 11 6Z" stroke="#9EACCE" stroke-width="0.8" stroke-linecap="round" stroke-linejoin="round"/>
</g>
<defs>
<clipPath id="clip0_80_110">
<rect width="12" height="12" fill="white"/>
</clipPath>
</defs>
</svg>
