<svg width="173" height="46" viewBox="0 0 173 46" fill="none" xmlns="http://www.w3.org/2000/svg">
<path d="M58.2915 36.7441H63.0717C63.1508 36.7441 63.1916 36.7835 63.1916 36.8635V37.1381C63.1916 37.218 63.152 37.2574 63.0717 37.2574H60.9575V43.0312C60.9575 43.11 60.9179 43.1505 60.8376 43.1505H60.5337C60.4604 43.1505 60.4231 43.1111 60.4231 43.0312V37.2574H58.2903C58.2169 37.2574 58.1797 37.218 58.1797 37.1381V36.8635C58.1797 36.7847 58.2169 36.7441 58.2903 36.7441H58.2915Z" fill="#FAFAFA"/>
<path d="M67.8278 40.8166V40.9267C67.8278 41.0067 67.7906 41.046 67.7172 41.046H63.7729C63.8276 41.5339 64.0337 41.9394 64.3888 42.2627C64.7438 42.5859 65.1665 42.7482 65.6577 42.7482C65.9826 42.7482 66.2457 42.7088 66.4482 42.6288C66.6508 42.55 66.8836 42.4156 67.1468 42.2268C67.2015 42.1897 67.2539 42.1989 67.3028 42.2546L67.4495 42.4747C67.4983 42.5477 67.489 42.6056 67.4215 42.6485C67.1211 42.8617 66.8429 43.0158 66.5844 43.1108C66.3272 43.2058 66.0175 43.2522 65.6554 43.2522C64.9685 43.2522 64.3911 43.0147 63.9219 42.5384C63.4528 42.0622 63.2188 41.4829 63.2188 40.8004C63.2188 40.1179 63.4551 39.5351 63.9266 39.0531C64.3981 38.5711 64.9709 38.3301 65.6461 38.3301C66.3213 38.3301 66.8441 38.5699 67.2364 39.0485C67.6287 39.527 67.8243 40.1179 67.8243 40.8189L67.8278 40.8166ZM63.7741 40.5606H67.3039C67.2737 40.0785 67.1107 39.6695 66.8173 39.3347C66.5227 38.9998 66.1374 38.8318 65.6589 38.8318C65.1804 38.8318 64.745 38.9963 64.3899 39.3254C64.0349 39.6545 63.8288 40.067 63.7741 40.5606Z" fill="#FAFAFA"/>
<path d="M71.1711 42.7474C71.674 42.7474 72.1059 42.5736 72.4668 42.226C72.5215 42.1715 72.5797 42.1738 72.6414 42.2352L72.844 42.4276C72.8929 42.482 72.8929 42.5342 72.844 42.5828C72.3655 43.0278 71.8079 43.2502 71.1711 43.2502C70.4842 43.2502 69.9067 43.0127 69.4376 42.5365C68.9684 42.0603 68.7344 41.4809 68.7344 40.7984C68.7344 40.116 68.9684 39.5332 69.4376 39.0511C69.9067 38.5691 70.4842 38.3281 71.1711 38.3281C71.802 38.3281 72.3597 38.5541 72.844 39.0048C72.8929 39.0477 72.8894 39.0963 72.8347 39.1508L72.6228 39.3524C72.5681 39.4069 72.5122 39.4045 72.4575 39.3431C72.0838 39.0083 71.6542 38.8403 71.1711 38.8403C70.6378 38.8403 70.1873 39.0291 69.8194 39.408C69.4515 39.7858 69.2676 40.2492 69.2676 40.7984C69.2676 41.3477 69.4515 41.8019 69.8194 42.1796C70.1873 42.5573 70.6378 42.7474 71.1711 42.7474Z" fill="#FAFAFA"/>
<path d="M74.784 39.3801C74.8876 39.1356 75.0786 38.8993 75.3545 38.671C75.6304 38.4427 75.9855 38.328 76.4209 38.328C76.9355 38.328 77.3616 38.4984 77.6992 38.8402C78.0368 39.182 78.2045 39.6849 78.2045 40.3499V43.0312C78.2045 43.1099 78.1649 43.1505 78.0845 43.1505H77.79C77.7108 43.1505 77.6701 43.1111 77.6701 43.0312V40.46C77.6701 39.905 77.5443 39.496 77.2929 39.2341C77.0414 38.9723 76.705 38.8413 76.2812 38.8413C75.8574 38.8413 75.4954 39.014 75.2101 39.3581C74.9249 39.7022 74.7829 40.1101 74.7829 40.5794V43.0312C74.7829 43.1099 74.7433 43.1505 74.663 43.1505H74.3684C74.2951 43.1505 74.2578 43.1111 74.2578 43.0312V36.3791C74.2578 36.3003 74.2974 36.2598 74.3777 36.2598H74.663C74.7421 36.2598 74.7829 36.2992 74.7829 36.3791V39.3801H74.784Z" fill="#FAFAFA"/>
<path d="M80.4399 39.4996C80.5435 39.2249 80.7403 38.9608 81.0278 38.7082C81.3154 38.4556 81.6868 38.3281 82.1396 38.3281C82.6542 38.3281 83.0803 38.4985 83.4179 38.8403C83.7544 39.1821 83.9232 39.6849 83.9232 40.35V43.0312C83.9232 43.11 83.8836 43.1506 83.8033 43.1506H83.5087C83.4296 43.1506 83.3888 43.1112 83.3888 43.0312V40.4601C83.3888 39.9051 83.2631 39.4961 83.0116 39.2342C82.7602 38.9724 82.4237 38.8414 81.9999 38.8414C81.5762 38.8414 81.2141 39.0141 80.9289 39.3582C80.6436 39.7023 80.5016 40.1102 80.5016 40.5795V43.0312C80.5016 43.11 80.462 43.1506 80.3817 43.1506H80.0872C80.0138 43.1506 79.9766 43.1112 79.9766 43.0312V38.5483C79.9766 38.4695 80.0138 38.4289 80.0872 38.4289H80.2618C80.3479 38.4289 80.391 38.4683 80.391 38.5483L80.4376 39.4996H80.4399Z" fill="#FAFAFA"/>
<path d="M85.9141 42.5365C85.4449 42.0603 85.2109 41.4809 85.2109 40.7984C85.2109 40.116 85.4449 39.5332 85.9141 39.0511C86.3833 38.5691 86.9607 38.3281 87.6476 38.3281C88.3345 38.3281 88.9026 38.5691 89.3718 39.0511C89.841 39.5332 90.075 40.116 90.075 40.7984C90.075 41.4809 89.841 42.0614 89.3718 42.5365C88.9026 43.0127 88.3287 43.2502 87.6476 43.2502C86.9665 43.2502 86.3833 43.0127 85.9141 42.5365ZM86.2948 42.1796C86.6627 42.5573 87.1132 42.7474 87.6464 42.7474C88.1797 42.7474 88.629 42.5585 88.9934 42.1796C89.3578 41.8019 89.5406 41.3407 89.5406 40.7984C89.5406 40.2562 89.3578 39.7858 88.9934 39.408C88.629 39.0303 88.1797 38.8403 87.6464 38.8403C87.1132 38.8403 86.6627 39.0291 86.2948 39.408C85.9269 39.7858 85.743 40.2492 85.743 40.7984C85.743 41.3477 85.9269 41.8019 86.2948 42.1796Z" fill="#FAFAFA"/>
<path d="M91.4688 43.0312V36.3791C91.4688 36.3003 91.506 36.2598 91.5794 36.2598H91.8739C91.9531 36.2598 91.9938 36.2992 91.9938 36.3791V43.0312C91.9938 43.1099 91.9542 43.1505 91.8739 43.1505H91.5794C91.506 43.1505 91.4688 43.1111 91.4688 43.0312Z" fill="#FAFAFA"/>
<path d="M94.086 42.5365C93.6168 42.0603 93.3828 41.4809 93.3828 40.7984C93.3828 40.116 93.6168 39.5332 94.086 39.0511C94.5552 38.5691 95.1326 38.3281 95.8195 38.3281C96.5064 38.3281 97.0745 38.5691 97.5437 39.0511C98.0128 39.5332 98.2468 40.116 98.2468 40.7984C98.2468 41.4809 98.0128 42.0614 97.5437 42.5365C97.0745 43.0127 96.5005 43.2502 95.8195 43.2502C95.1384 43.2502 94.5552 43.0127 94.086 42.5365ZM94.4678 42.1796C94.8357 42.5573 95.2863 42.7474 95.8195 42.7474C96.3527 42.7474 96.8021 42.5585 97.1665 42.1796C97.5309 41.8019 97.7136 41.3407 97.7136 40.7984C97.7136 40.2562 97.5309 39.7858 97.1665 39.408C96.8021 39.0303 96.3527 38.8403 95.8195 38.8403C95.2863 38.8403 94.8357 39.0291 94.4678 39.408C94.1 39.7858 93.916 40.2492 93.916 40.7984C93.916 41.3477 94.1 41.8019 94.4678 42.1796Z" fill="#FAFAFA"/>
<path d="M103.8 42.4729C103.8 43.3269 103.616 43.963 103.248 44.3801C102.881 44.7984 102.287 45.007 101.465 45.007C100.926 45.007 100.389 44.9097 99.8559 44.7138C99.7884 44.6837 99.764 44.6374 99.7826 44.5771L99.8746 44.2932C99.899 44.2202 99.9479 44.1959 100.021 44.2202C100.493 44.4091 100.968 44.5041 101.446 44.5041C101.747 44.5041 102.009 44.4694 102.232 44.3987C102.456 44.328 102.633 44.2353 102.761 44.1194C102.89 44.0036 102.993 43.8553 103.073 43.6757C103.152 43.4961 103.204 43.3153 103.229 43.1357C103.253 42.9561 103.266 42.7464 103.266 42.5089V42.0326C102.812 42.7522 102.19 43.1125 101.4 43.1125C100.756 43.1125 100.221 42.8843 99.7954 42.4266C99.3693 41.9689 99.1562 41.4046 99.1562 40.7337C99.1562 40.0629 99.3693 39.4858 99.7954 39.0224C100.221 38.5589 100.756 38.3271 101.4 38.3271C102.282 38.3271 102.932 38.7234 103.349 39.5171L103.376 38.5473C103.382 38.4685 103.425 38.428 103.506 38.428H103.68C103.759 38.428 103.8 38.4673 103.8 38.5473V42.4729ZM101.493 38.8404C100.965 38.8404 100.533 39.02 100.197 39.3804C99.8594 39.7407 99.6918 40.1915 99.6918 40.7349C99.6918 41.2783 99.8606 41.7267 100.197 42.0801C100.533 42.4335 100.967 42.6108 101.493 42.6108C102.019 42.6108 102.433 42.4266 102.771 42.057C103.108 41.6885 103.276 41.247 103.276 40.7349C103.276 40.2228 103.106 39.7871 102.766 39.4082C102.426 39.0305 102.002 38.8404 101.493 38.8404Z" fill="#FAFAFA"/>
<path d="M105.508 36.6447C105.508 36.5231 105.547 36.4211 105.628 36.3377C105.707 36.2554 105.808 36.2137 105.932 36.2137C106.048 36.2137 106.148 36.2543 106.231 36.3377C106.313 36.4199 106.355 36.5219 106.355 36.6447C106.355 36.7676 106.313 36.8602 106.231 36.9425C106.148 37.0248 106.048 37.0665 105.932 37.0665C105.809 37.0665 105.708 37.0259 105.628 36.9425C105.549 36.8602 105.508 36.7606 105.508 36.6447ZM105.673 43.0314V38.5485C105.673 38.4697 105.713 38.4291 105.793 38.4291H106.078C106.157 38.4291 106.198 38.4685 106.198 38.5485V43.0314C106.198 43.1102 106.159 43.1508 106.078 43.1508H105.793C105.713 43.1508 105.673 43.1114 105.673 43.0314Z" fill="#FAFAFA"/>
<path d="M112.191 40.8166V40.9267C112.191 41.0067 112.154 41.046 112.08 41.046H108.136C108.191 41.5339 108.397 41.9394 108.752 42.2627C109.107 42.5859 109.53 42.7482 110.021 42.7482C110.346 42.7482 110.609 42.7088 110.812 42.6288C111.014 42.55 111.247 42.4156 111.51 42.2268C111.565 42.1897 111.617 42.1989 111.666 42.2546L111.813 42.4747C111.862 42.5477 111.852 42.6056 111.785 42.6485C111.484 42.8617 111.206 43.0158 110.948 43.1108C110.69 43.2058 110.381 43.2522 110.019 43.2522C109.332 43.2522 108.754 43.0147 108.285 42.5384C107.816 42.0622 107.582 41.4829 107.582 40.8004C107.582 40.1179 107.818 39.5351 108.29 39.0531C108.761 38.5711 109.335 38.3301 110.009 38.3301C110.683 38.3301 111.207 38.5699 111.6 39.0485C111.992 39.527 112.188 40.1179 112.188 40.8189L112.191 40.8166ZM108.136 40.5606H111.666C111.636 40.0785 111.473 39.6695 111.178 39.3347C110.884 38.9998 110.498 38.8318 110.02 38.8318C109.541 38.8318 109.107 38.9963 108.751 39.3254C108.396 39.6545 108.19 40.067 108.135 40.5606H108.136Z" fill="#FAFAFA"/>
<path d="M115.197 42.7476C115.656 42.7476 115.992 42.6653 116.204 42.5007C116.416 42.3362 116.52 42.1195 116.52 41.8507C116.52 41.5819 116.416 41.4104 116.208 41.2969C116 41.1845 115.647 41.0941 115.151 41.0269C114.937 40.9968 114.759 40.9678 114.618 40.94C114.477 40.9122 114.321 40.8682 114.149 40.8067C113.978 40.7453 113.84 40.6723 113.74 40.5866C113.639 40.5009 113.553 40.3873 113.483 40.2436C113.412 40.0999 113.377 39.9343 113.377 39.7454C113.377 39.319 113.533 38.9749 113.846 38.7165C114.158 38.4569 114.582 38.3271 115.115 38.3271C115.722 38.3271 116.292 38.4859 116.825 38.8034C116.893 38.8578 116.908 38.9158 116.871 38.9772L116.733 39.2332C116.69 39.3062 116.636 39.3213 116.568 39.2796C116.09 38.9864 115.605 38.8404 115.115 38.8404C114.306 38.8404 113.902 39.1336 113.902 39.7187C113.902 39.9876 114.002 40.1718 114.201 40.2726C114.4 40.3734 114.754 40.4568 115.263 40.524C115.533 40.5611 115.753 40.6017 115.925 40.648C116.097 40.6932 116.279 40.7627 116.473 40.8543C116.666 40.9458 116.809 41.0721 116.904 41.2343C117 41.3954 117.046 41.5923 117.046 41.8241C117.046 42.2447 116.884 42.5877 116.559 42.853C116.234 43.1183 115.778 43.2504 115.188 43.2504C114.509 43.2504 113.874 43.0616 113.285 42.6827C113.223 42.6456 113.214 42.5911 113.257 42.5181L113.413 42.2435C113.456 42.1705 113.508 42.1578 113.569 42.2064C114.102 42.5668 114.645 42.7464 115.197 42.7464V42.7476Z" fill="#FAFAFA"/>
<path d="M49.7894 40.2764H22.4062V40.4676H49.7894V40.2764Z" fill="#FAFAFA"/>
<path d="M152.578 40.2754H125.195V40.4666H152.578V40.2754Z" fill="#FAFAFA"/>
<path d="M70.4875 19.8603V20.209C70.4875 20.4941 70.3443 20.6354 70.0591 20.6354H52.8056C53.0129 22.8578 53.9151 24.7314 55.5124 26.2562C57.1097 27.7811 59.0364 28.5435 61.2961 28.5435C62.7235 28.5435 63.8795 28.3627 64.762 28.0012C65.6444 27.6397 66.6701 27.0453 67.8389 26.218C68.0986 26.0372 68.293 26.0627 68.4234 26.2956L68.8902 26.9549C69.0718 27.2133 69.0322 27.4335 68.7738 27.6142C67.5281 28.4925 66.3523 29.1391 65.2498 29.5527C64.1461 29.9664 62.8282 30.1726 61.2973 30.1726C58.4404 30.1726 56.02 29.1645 54.0339 27.1496C52.0477 25.1346 51.0547 22.6921 51.0547 19.8232C51.0547 16.9543 52.0477 14.5071 54.0339 12.4782C56.02 10.4494 58.4276 9.43555 61.2589 9.43555C64.0902 9.43555 66.3022 10.4378 67.9775 12.44C69.6516 14.4434 70.4898 16.9172 70.4898 19.8626L70.4875 19.8603ZM52.8056 19.0457H68.7738C68.6958 16.85 67.9682 14.9625 66.5933 13.3867C65.2172 11.8108 63.4511 11.0218 61.2961 11.0218C59.1412 11.0218 57.1027 11.7969 55.4938 13.3473C53.8837 14.8976 52.9884 16.7967 52.8068 19.0457H52.8056Z" fill="#FAFAFA"/>
<path d="M73.4453 29.3176V0.983037C73.4453 0.699158 73.5873 0.556641 73.8737 0.556641H74.7306C75.0158 0.556641 75.159 0.699158 75.159 0.983037V29.3176C75.159 29.6027 75.0158 29.744 74.7306 29.744H73.8737C73.5873 29.744 73.4453 29.6027 73.4453 29.3176Z" fill="#FAFAFA"/>
<path d="M80.2188 29.3176V0.983037C80.2188 0.699158 80.3608 0.556641 80.6472 0.556641H81.504C81.7893 0.556641 81.9324 0.699158 81.9324 0.983037V29.3176C81.9324 29.6027 81.7893 29.744 81.504 29.744H80.6472C80.3608 29.744 80.2188 29.6027 80.2188 29.3176Z" fill="#FAFAFA"/>
<path d="M97.9412 29.7434H87.737C87.4506 29.7434 87.3086 29.602 87.3086 29.317V3.03675C87.3086 2.75287 87.4506 2.61035 87.737 2.61035H96.9668C98.1356 2.61035 99.2509 2.73317 100.316 2.97881C101.38 3.22446 102.38 3.61841 103.315 4.16068C104.25 4.70295 104.996 5.45262 105.555 6.40854C106.113 7.36446 106.392 8.48955 106.392 9.78033C106.392 10.7884 106.218 11.6933 105.866 12.494C105.516 13.2958 105.06 13.9226 104.503 14.3734C103.944 14.8253 103.425 15.1752 102.945 15.4197C102.464 15.6653 101.977 15.853 101.485 15.9816V16.0199C101.823 16.072 102.192 16.1693 102.595 16.3107C102.997 16.4532 103.497 16.6919 104.094 17.0279C104.691 17.364 105.216 17.7649 105.672 18.2295C106.126 18.6941 106.521 19.3152 106.859 20.0904C107.197 20.8655 107.365 21.7322 107.365 22.687C107.365 25.0391 106.483 26.8026 104.717 27.9776C102.951 29.1536 100.692 29.7411 97.9401 29.7411L97.9412 29.7434ZM89.0235 15.2088H98.0588C99.9797 15.2088 101.557 14.7569 102.791 13.852C104.024 12.9482 104.641 11.6296 104.641 9.89851C104.641 8.01217 103.94 6.6032 102.539 5.67393C101.137 4.7435 99.2149 4.27887 96.7747 4.27887H89.0246V15.2099L89.0235 15.2088ZM89.0235 28.0772H97.7084C100.383 28.0772 102.376 27.5998 103.687 26.6427C104.997 25.6868 105.653 24.3555 105.653 22.6499C105.653 20.9443 104.945 19.4589 103.531 18.4253C102.115 17.3918 100.343 16.875 98.2148 16.875H89.0235V28.0772Z" fill="#FAFAFA"/>
<path d="M110.484 29.3176V0.983037C110.484 0.699158 110.626 0.556641 110.913 0.556641H111.77C112.055 0.556641 112.198 0.699158 112.198 0.983037V29.3176C112.198 29.6027 112.055 29.744 111.77 29.744H110.913C110.626 29.744 110.484 29.6027 110.484 29.3176Z" fill="#FAFAFA"/>
<path d="M130.423 25.325C129.773 26.9275 128.76 28.1349 127.385 28.9494C126.009 29.7628 124.399 30.1707 122.556 30.1707C120.349 30.1707 118.604 29.6157 117.319 28.5045C116.033 27.3933 115.391 25.8557 115.391 23.8917C115.391 21.9278 116.104 20.345 117.533 19.2987C118.96 18.2524 120.895 17.7287 123.336 17.7287C125.413 17.7287 127.75 18.1296 130.346 18.9302C130.346 15.7519 129.923 13.6454 129.08 12.6119C128.236 11.5783 126.53 11.0616 123.959 11.0616C122.089 11.0616 120.116 11.2945 118.039 11.7591C117.727 11.8622 117.533 11.7336 117.455 11.3721L117.299 10.7128C117.221 10.4289 117.35 10.2354 117.689 10.1311C119.272 9.66649 121.427 9.43359 124.154 9.43359C127.243 9.43359 129.327 10.1056 130.404 11.4497C131.481 12.7938 132.02 15.2224 132.02 18.7367V29.319C132.02 29.6041 131.877 29.7454 131.592 29.7454H131.007C130.721 29.7454 130.566 29.6041 130.54 29.319L130.424 25.3262L130.423 25.325ZM123.452 19.3172C121.478 19.3172 119.928 19.6984 118.797 20.4609C117.668 21.2233 117.103 22.3669 117.103 23.8917C117.103 25.4166 117.603 26.5081 118.603 27.3226C119.602 28.1372 120.972 28.5439 122.711 28.5439C125.126 28.5439 127.001 27.8336 128.339 26.4119C129.675 24.9913 130.345 23.2591 130.345 21.2175V20.52C127.644 19.7193 125.347 19.3184 123.452 19.3184V19.3172Z" fill="#FAFAFA"/>
<path d="M150.364 29.7429H134.98C134.772 29.7429 134.668 29.6397 134.668 29.4323V29.3165C134.668 29.1878 134.732 29.0198 134.862 28.8124L147.714 11.4471H136.225C135.938 11.4471 135.796 11.3058 135.796 11.0207V10.2456C135.796 9.9872 135.938 9.85742 136.225 9.85742H150.129C150.336 9.85742 150.441 9.96055 150.441 10.168V10.2838C150.441 10.4912 150.375 10.672 150.246 10.8261L137.433 28.152H150.363C150.648 28.152 150.791 28.2945 150.791 28.5784V29.3153C150.791 29.6003 150.648 29.7417 150.363 29.7417L150.364 29.7429Z" fill="#FAFAFA"/>
<path d="M171.278 19.8603V20.209C171.278 20.4941 171.135 20.6354 170.849 20.6354H153.596C153.803 22.8578 154.705 24.7314 156.303 26.2562C157.9 27.7811 159.827 28.5435 162.086 28.5435C163.514 28.5435 164.67 28.3627 165.552 28.0012C166.435 27.6397 167.46 27.0453 168.629 26.218C168.889 26.0372 169.083 26.0627 169.214 26.2956L169.68 26.9549C169.862 27.2133 169.822 27.4335 169.564 27.6142C168.317 28.4925 167.142 29.1391 166.039 29.5527C164.935 29.9664 163.617 30.1726 162.086 30.1726C159.229 30.1726 156.809 29.1645 154.823 27.1496C152.837 25.1335 151.844 22.6921 151.844 19.8232C151.844 16.9543 152.837 14.5071 154.823 12.4782C156.809 10.4494 159.217 9.43555 162.047 9.43555C164.877 9.43555 167.09 10.4378 168.765 12.44C170.439 14.4434 171.278 16.9172 171.278 19.8626V19.8603ZM153.596 19.0457H169.564C169.486 16.85 168.758 14.9625 167.383 13.3867C166.007 11.8108 164.241 11.0218 162.086 11.0218C159.931 11.0218 157.893 11.7969 156.284 13.3473C154.674 14.8976 153.777 16.7967 153.597 19.0457H153.596Z" fill="#FAFAFA"/>
<path d="M47.717 20.0928C47.3794 19.3177 46.9824 18.6978 46.5284 18.232C46.0732 17.7662 45.5481 17.3664 44.9509 17.0304C44.3537 16.6956 43.8531 16.4546 43.4514 16.3132C43.0486 16.1718 42.6784 16.0745 42.3408 16.0224V15.983C42.8332 15.8532 43.321 15.6678 43.8018 15.421C44.2826 15.1765 44.8019 14.8278 45.3595 14.3747C45.9183 13.9228 46.3724 13.296 46.7228 12.4942C47.0732 11.6935 47.249 10.7886 47.249 9.78166C47.249 8.48972 46.9696 7.36579 46.4108 6.40987C45.852 5.45396 45.1069 4.70428 44.1709 4.16086C43.2372 3.61859 42.2371 3.22464 41.1719 2.97783C40.1067 2.73335 38.9914 2.60937 37.8225 2.60937H30.6638V4.27557H37.6292C40.0694 4.27557 41.9915 4.74136 43.3932 5.67063C44.7949 6.5999 45.4957 8.01003 45.4957 9.89522C45.4957 11.6263 44.8787 12.9449 43.6458 13.8487C42.4129 14.7536 40.8354 15.2055 38.9134 15.2055H30.6638V16.8717H39.0694C41.1975 16.8717 42.9694 17.3885 44.3851 18.422C45.7996 19.4556 46.5074 20.8634 46.5074 22.6466C46.5074 24.4298 45.8508 25.6835 44.5411 26.6394C43.2302 27.5954 41.2371 28.0739 38.5629 28.0739H30.8932C30.7663 28.0739 30.6638 28.0774 30.6638 28.0774V29.7413H30.8885H38.7969C41.5491 29.7413 43.8076 29.1538 45.5737 27.9777C47.3387 26.8017 48.2223 25.0381 48.2223 22.6872C48.2223 21.7312 48.0535 20.8657 47.7159 20.0894L47.717 20.0928Z" fill="#FAFAFA"/>
<path d="M23.5437 28.0778C19.1663 28.0778 14.8098 28.072 10.4324 28.0778C6.10744 28.0836 2.88028 24.7396 3.22139 20.5857C3.55552 16.5164 7.34266 13.5096 11.408 14.1619C12.2044 14.2906 12.464 14.1249 12.6887 13.3485C13.6689 9.95128 17.0486 8.26537 20.3735 9.51328C20.8858 9.70562 21.4621 9.47737 21.6914 8.98377C23.1967 5.75682 25.6881 4.28065 29.2738 4.28065C29.2843 4.28065 29.5998 4.26906 29.7419 4.28065V2.61328C26.6905 2.61328 24.4366 3.35717 22.3806 5.31188C21.6809 5.97697 21.1082 6.75793 20.6832 7.62926C20.554 7.8946 20.4178 7.95485 20.1291 7.87143C16.5072 6.81586 12.7015 8.90266 11.4732 12.286C11.3801 12.5421 11.2835 12.6557 10.9703 12.629C6.56032 12.2559 2.47631 15.484 1.81271 19.8453C1.79409 19.9681 1.72656 20.916 1.72656 20.916C1.72656 21.836 1.83483 22.7548 2.08048 23.6412C2.12123 23.7837 2.1643 23.9262 2.21436 24.0664C3.38438 27.3838 6.61504 29.7266 10.1565 29.7324C16.6865 29.744 23.2142 29.7475 29.7442 29.7417V28.0778H23.5448H23.5437Z" fill="#17A7E0"/>
<path d="M16.8422 17.0402C16.8305 17.0402 16.8189 17.0402 16.8061 17.0379C16.614 17.0182 16.4743 16.8478 16.4941 16.6566C16.586 15.7587 17.0866 14.9406 17.8678 14.4123C18.741 13.8213 19.8458 13.6522 20.8971 13.9488C21.0822 14.0009 21.1904 14.1933 21.138 14.3775C21.0857 14.5617 20.8924 14.6695 20.7073 14.6174C19.8551 14.3775 18.9633 14.5119 18.2613 14.987C17.642 15.4053 17.2624 16.024 17.1902 16.7273C17.1716 16.9069 17.0203 17.0402 16.8433 17.0402H16.8422Z" fill="#17A7E0"/>
</svg>
