<svg width="13" height="16" viewBox="0 0 13 16" fill="none" xmlns="http://www.w3.org/2000/svg">
<g clip-path="url(#clip0_1_71)">
<path d="M5.5194 6.41067C7.01723 6.41067 8.51505 6.41067 10.0129 6.41067C10.6544 6.41067 11.0359 6.7948 11.0373 7.43739C11.0373 8.69258 11.0373 9.94777 11.0373 11.2015C11.0373 11.8384 10.6544 12.2283 10.027 12.2283C7.02146 12.2283 4.01592 12.2283 1.01038 12.2283C0.390052 12.2283 0.00287789 11.8384 0.00146484 11.2158C0.00146484 9.95063 0.00146484 8.68544 0.00146484 7.42025C0.00146484 6.80622 0.390052 6.41067 0.996247 6.40924C2.50396 6.40924 4.01168 6.40924 5.52081 6.40924L5.5194 6.41067ZM4.54016 7.89006C4.26038 7.89006 4.01592 7.89577 3.77146 7.8872C3.65983 7.88292 3.59766 7.91576 3.54396 8.01857C3.40973 8.27847 3.26136 8.53122 3.10733 8.80539C2.94342 8.52265 2.79081 8.25562 2.63396 7.99144C2.60994 7.95146 2.56614 7.8972 2.5294 7.89577C2.25668 7.8872 1.98396 7.89148 1.68864 7.89148C1.72962 7.96145 1.75223 8.00572 1.77907 8.04713C2.03201 8.44697 2.28494 8.84823 2.54212 9.24521C2.59157 9.32089 2.59157 9.37373 2.54212 9.44941C2.26516 9.87066 1.99386 10.2962 1.72114 10.7189C1.69288 10.7632 1.66886 10.8088 1.6307 10.8731C1.89636 10.8731 2.13233 10.8645 2.3669 10.876C2.49831 10.8831 2.56896 10.8374 2.63255 10.7246C2.77951 10.4661 2.93918 10.2162 3.10451 9.94635C3.28255 10.2348 3.44646 10.5018 3.61462 10.7674C3.64005 10.8074 3.68244 10.866 3.71777 10.8674C4.00603 10.876 4.29429 10.8717 4.60516 10.8717C4.56277 10.8046 4.53592 10.7603 4.50766 10.7203C4.23918 10.3305 3.97353 9.93921 3.6994 9.55365C3.62733 9.45227 3.61038 9.37658 3.68668 9.26806C3.80538 9.10098 3.90712 8.92106 4.01451 8.74542C4.18407 8.47124 4.35223 8.19564 4.54016 7.89006ZM9.28516 8.05713C8.77646 7.8415 8.27342 7.75011 7.75483 7.94432C7.39451 8.07998 7.22353 8.35843 7.22636 8.74684C7.22918 9.06814 7.35918 9.31946 7.63331 9.47797C7.86364 9.61077 8.10527 9.72215 8.33983 9.84639C8.43309 9.89637 8.50799 9.98205 8.4557 10.0834C8.42038 10.1534 8.32853 10.2234 8.25364 10.2362C8.1307 10.2576 7.99647 10.2519 7.87353 10.2248C7.65168 10.1748 7.43549 10.1006 7.20233 10.032C7.20233 10.2434 7.1981 10.459 7.20657 10.6732C7.20657 10.7075 7.26168 10.7532 7.30125 10.7717C7.61212 10.9117 7.94277 10.9531 8.27483 10.9045C8.4769 10.876 8.68886 10.8203 8.8669 10.7217C9.40103 10.4261 9.44342 9.55222 8.88244 9.24378C8.75244 9.17238 8.62103 9.10384 8.48962 9.0353C8.3681 8.97104 8.2381 8.9182 8.12646 8.83681C8.07559 8.79968 8.03462 8.70543 8.04309 8.64546C8.05016 8.59548 8.1307 8.53693 8.19005 8.51694C8.25929 8.49266 8.34407 8.49124 8.41614 8.50552C8.62386 8.54978 8.82733 8.6069 9.04494 8.66259C9.12125 8.46839 9.19896 8.2699 9.28375 8.0557L9.28516 8.05713ZM6.8632 10.8674V10.2105H5.72994V7.90291H4.94429V10.8674H6.86462H6.8632Z" fill="#5E6BFF"/>
<path d="M1.71121 5.9323H1.25903C1.25903 5.8709 1.25903 5.81663 1.25903 5.76094C1.25903 4.23729 1.25903 2.71363 1.25903 1.18998C1.25903 0.560238 1.6349 0.181824 2.26371 0.181824C4.67295 0.181824 7.08077 0.181824 9.4886 0.186108C9.5649 0.186108 9.65958 0.224663 9.71327 0.277498C10.7829 1.3442 11.8484 2.41518 12.911 3.49045C12.9604 3.54043 12.9972 3.6304 12.9972 3.70322C13.0014 7.31887 13.0014 10.9345 13 14.5502C13 15.1513 12.6044 15.5469 12.0066 15.5469C8.75947 15.5469 5.51371 15.5469 2.26653 15.5469C1.65327 15.5469 1.26045 15.1485 1.25903 14.5287C1.25903 13.9861 1.25903 13.4435 1.25903 12.9023C1.25903 12.8523 1.25903 12.8009 1.25903 12.7438H1.71121C1.71121 12.8052 1.71121 12.8594 1.71121 12.9151C1.71121 13.462 1.71121 14.0104 1.71121 14.5573C1.71121 14.8843 1.91469 15.0899 2.23686 15.0899C5.50382 15.0899 8.77077 15.0899 12.0377 15.0899C12.3147 15.0899 12.4984 14.9114 12.5153 14.633C12.5182 14.5816 12.5168 14.5302 12.5168 14.4788C12.5168 10.9659 12.5168 7.45453 12.5168 3.9417C12.5168 3.67038 12.4631 3.61612 12.1988 3.61612C11.652 3.61612 11.1051 3.61612 10.5583 3.61612C9.95349 3.61469 9.57338 3.22771 9.57338 2.61653C9.57338 2.04819 9.57338 1.47986 9.57338 0.911522C9.57338 0.727312 9.48718 0.641633 9.30349 0.640205C6.95218 0.640205 4.59947 0.640205 2.24816 0.640205C1.89066 0.640205 1.71262 0.822987 1.71262 1.18284C1.71262 2.70078 1.71262 4.22015 1.71262 5.73809C1.71262 5.7995 1.71262 5.85947 1.71262 5.9323H1.71121ZM10.0241 1.29136C10.0241 1.77117 10.0241 2.21384 10.0241 2.65794C10.0241 2.95782 10.2149 3.15345 10.5102 3.15631C10.8734 3.15916 11.2351 3.15631 11.5983 3.15631C11.6831 3.15631 11.7664 3.15631 11.8342 3.15631C11.2379 2.54227 10.6445 1.92967 10.0241 1.29136Z" fill="#5E6BFF"/>
<path d="M4.54007 7.89146C4.35214 8.19705 4.18398 8.47122 4.01442 8.74682C3.90703 8.92246 3.80529 9.10239 3.68659 9.26946C3.60888 9.37799 3.62725 9.45367 3.69931 9.55506C3.97344 9.94061 4.23909 10.3319 4.50757 10.7217C4.53583 10.7631 4.56127 10.806 4.60507 10.8731C4.29279 10.8731 4.00453 10.8774 3.71768 10.8688C3.68235 10.8688 3.63996 10.8088 3.61453 10.7688C3.44779 10.5047 3.28388 10.2376 3.10442 9.94775C2.93909 10.2191 2.77801 10.469 2.63246 10.726C2.56888 10.8374 2.49822 10.8845 2.36681 10.8774C2.13225 10.8645 1.89768 10.8745 1.63062 10.8745C1.66877 10.8103 1.69279 10.7646 1.72105 10.7203C1.99377 10.2962 2.26507 9.87207 2.54203 9.45081C2.59148 9.37513 2.59148 9.3223 2.54203 9.24661C2.28485 8.84963 2.03333 8.44837 1.77898 8.04854C1.75214 8.0057 1.72812 7.96143 1.68855 7.89289C1.98388 7.89289 2.25659 7.8886 2.52931 7.89717C2.56605 7.89717 2.60985 7.95286 2.63388 7.99285C2.79072 8.25702 2.94333 8.52405 3.10725 8.80679C3.25985 8.53262 3.40822 8.27987 3.54388 8.01998C3.59757 7.91716 3.65975 7.88575 3.77138 7.8886C4.01583 7.89717 4.26029 7.89146 4.54007 7.89146Z" fill="#5E6BFF"/>
<path d="M9.28364 8.05855C9.20027 8.27275 9.12114 8.47123 9.04484 8.66544C8.82723 8.60975 8.62375 8.55263 8.41604 8.50836C8.34397 8.49265 8.25919 8.49551 8.18995 8.51979C8.1306 8.53978 8.05006 8.59832 8.04299 8.6483C8.03451 8.70828 8.07549 8.80395 8.12636 8.83965C8.23658 8.91962 8.36658 8.97246 8.48951 9.03814C8.62093 9.10669 8.75234 9.17523 8.88234 9.24663C9.44332 9.55507 9.40093 10.4304 8.8668 10.7246C8.68875 10.8231 8.4768 10.8788 8.27473 10.9074C7.94267 10.9559 7.61201 10.9131 7.30114 10.7746C7.26158 10.7574 7.20788 10.7117 7.20647 10.676C7.19799 10.4618 7.20223 10.2462 7.20223 10.0349C7.43538 10.1034 7.65158 10.1777 7.87343 10.2276C7.99495 10.2548 8.1306 10.2605 8.25354 10.2391C8.32984 10.2262 8.42169 10.1563 8.4556 10.0863C8.50647 9.98489 8.43158 9.89779 8.33973 9.84923C8.10517 9.725 7.86354 9.61362 7.63321 9.48082C7.35908 9.32088 7.22767 9.07099 7.22625 8.74969C7.22343 8.35985 7.39441 8.0814 7.75473 7.94717C8.27332 7.75296 8.77495 7.84435 9.28506 8.05998L9.28364 8.05855Z" fill="#5E6BFF"/>
<path d="M6.8632 10.8688H4.94287V7.90436H5.72852V10.212H6.86178V10.8688H6.8632Z" fill="#5E6BFF"/>
<path d="M10.0242 1.29138C10.6445 1.92969 11.238 2.54229 11.8343 3.15632C11.7665 3.15632 11.6831 3.15632 11.5983 3.15632C11.2352 3.15632 10.8734 3.15918 10.5103 3.15632C10.2149 3.15347 10.0256 2.95783 10.0242 2.65796C10.0228 2.21528 10.0242 1.77118 10.0242 1.29138Z" fill="white"/>
<path d="M4 9.84657L5.18182 10.9545M5.18182 10.9545L6.36364 9.84657M5.18182 10.9545V7.99998" stroke="white" stroke-width="0.4" stroke-linecap="round" stroke-linejoin="round"/>
</g>
<defs>
<clipPath id="clip0_1_71">
<rect width="13" height="15.3636" fill="white" transform="translate(0 0.181824)"/>
</clipPath>
</defs>
</svg>
