<svg width="12" height="12" viewBox="0 0 12 12" fill="none" xmlns="http://www.w3.org/2000/svg">
<path d="M9 7L9.64645 6.35355C9.8417 6.1583 9.8417 5.8417 9.64645 5.64645L9 5" stroke="#9EACCE" stroke-width="0.7" stroke-linecap="round" stroke-linejoin="round"/>
<path d="M9.5 6H6.5M2 8.63315V3.63317M8 8.63315C8 9.18545 7.5523 9.63315 7 9.63315H5M8 3.63317C8 3.08088 7.5523 2.63317 7 2.63317H5M2.4453 9.93005L3.4453 10.5967C4.10986 11.0397 5 10.5634 5 9.76465V2.50168C5 1.70299 4.10986 1.2266 3.4453 1.66963L2.4453 2.3363C2.1671 2.52177 2 2.834 2 3.16835V9.098C2 9.43235 2.1671 9.74455 2.4453 9.93005Z" stroke="#9EACCE" stroke-width="0.7" stroke-linecap="round"/>
</svg>
