<svg width="15" height="12" viewBox="0 0 15 12" fill="none" xmlns="http://www.w3.org/2000/svg">
<circle cx="7.5" cy="5.55001" r="1.95" stroke="#9EACCE" stroke-width="0.8"/>
<path d="M10.75 8.15001V7.17501C10.75 6.63653 11.1865 6.20001 11.725 6.20001V6.20001C12.2635 6.20001 12.7 6.63653 12.7 7.17501V8.15001" stroke="#9EACCE" stroke-width="0.8" stroke-linecap="round" stroke-linejoin="round"/>
<path d="M12.375 8.14999H11.075C10.1775 8.14999 9.45 8.87753 9.45 9.77499C9.45 10.6725 10.1775 11.4 11.075 11.4H12.375C13.2725 11.4 14 10.6725 14 9.77499C14 8.87753 13.2725 8.14999 12.375 8.14999Z" stroke="#9EACCE" stroke-width="0.8" stroke-linecap="round" stroke-linejoin="round"/>
<path d="M7.5 10.1C5.01991 10.1 2.83657 8.28303 1.56531 6.94549C0.811564 6.15244 0.811564 4.94756 1.56531 4.15451C2.83657 2.81697 5.01991 1 7.5 1C9.98008 1 12.1634 2.81697 13.4347 4.15451C13.8113 4.55073 13.9997 5.04973 14 5.54882" stroke="#9EACCE" stroke-width="0.8" stroke-linecap="round"/>
</svg>
