<svg width="63" height="55" viewBox="0 0 63 55" fill="none" xmlns="http://www.w3.org/2000/svg">
<path d="M41.9495 5.15259C42.3983 5.15259 42.7619 5.51715 42.762 5.96606C42.762 6.41498 42.3984 6.77954 41.9495 6.77954C38.2305 6.77956 34.8928 9.26771 33.8333 12.8293C33.7154 13.2271 33.3191 13.4674 32.9182 13.3987L32.9143 13.4045L32.8215 13.3772C32.3915 13.2488 32.1463 12.7959 32.2747 12.3655C33.5117 8.20677 37.3647 5.15261 41.9495 5.15259Z" fill="url(#paint0_linear_1_27)" stroke="#F9FFF9" stroke-width="0.3"/>
<path d="M51.2289 38.4593H47.2518C46.8859 38.4593 46.589 38.1624 46.589 37.7962C46.589 37.4301 46.8858 37.1331 47.2518 37.1331H51.2289C56.711 37.1331 61.1716 32.6707 61.1716 27.1862C61.1716 21.7018 56.711 17.2394 51.2289 17.2394H51.1332C50.941 17.2394 50.7582 17.1561 50.6323 17.0106C50.5064 16.8652 50.4496 16.6724 50.477 16.482C50.5362 16.069 50.566 15.6541 50.566 15.2501C50.566 10.4969 46.7002 6.62942 41.949 6.62942C40.1006 6.62942 38.3379 7.20728 36.8511 8.30095C36.5245 8.5411 36.0605 8.43452 35.8716 8.07501C31.6611 0.0541018 20.6638 -1.02302 14.9622 5.95447C12.5604 8.89398 11.6167 12.7178 12.3729 16.4447C12.4562 16.8563 12.1413 17.2399 11.7233 17.2399H11.4577C5.97549 17.2399 1.51497 21.7023 1.51497 27.1868C1.51497 32.6712 5.97549 37.1336 11.4577 37.1336H15.4347C15.8007 37.1336 16.0975 37.4306 16.0975 37.7967C16.0975 38.1628 15.8007 38.4598 15.4347 38.4598H11.4577C5.24437 38.4598 0.189209 33.4026 0.189209 27.1867C0.189209 21.1452 4.96451 16.1983 10.9373 15.9255C10.3763 12.0589 11.4491 8.15882 13.9357 5.11515C20.0401 -2.35586 31.7386 -1.51846 36.6838 6.81226C38.2614 5.82278 40.0667 5.3037 41.9488 5.3037C47.7051 5.3037 52.2665 10.2052 51.8673 15.9316C57.7851 16.2637 62.497 21.1845 62.497 27.1862C62.497 33.4026 57.4419 38.4594 51.2286 38.4594L51.2289 38.4593Z" fill="url(#paint1_linear_1_27)"/>
<path d="M31.2543 20.6931C40.4747 20.6931 47.9759 28.1976 47.976 37.4216C47.976 46.6456 40.4747 54.1501 31.2543 54.1501C22.034 54.1501 14.5326 46.6457 14.5326 37.4216C14.5327 28.1977 22.0339 20.6931 31.2543 20.6931ZM31.2543 22.32C22.931 22.3201 16.1586 29.0948 16.1586 37.4216C16.1586 45.7486 22.931 52.5231 31.2543 52.5232C39.5775 52.5232 46.35 45.7485 46.35 37.4216C46.3499 29.0947 39.5775 22.32 31.2543 22.32Z" fill="url(#paint2_linear_1_27)" stroke="#F9FFF9" stroke-width="0.3"/>
<path d="M31.5574 30.837C31.9081 30.8371 32.1921 31.122 32.1921 31.4728V44.0958C32.192 44.4469 31.908 44.7306 31.5574 44.7306C31.2066 44.7306 30.9218 44.4465 30.9216 44.0958V31.4728C30.9217 31.122 31.2066 30.837 31.5574 30.837Z" fill="url(#paint3_linear_1_27)" stroke="#483EA8" stroke-width="0.3"/>
<path d="M31.1077 31.0249C31.3555 30.7765 31.758 30.7769 32.0061 31.0249L35.8889 34.9087C36.1369 35.1569 36.1368 35.5589 35.8889 35.8072C35.7648 35.9317 35.6016 35.9936 35.4397 35.9937C35.2774 35.9937 35.1144 35.9311 34.9905 35.8072L31.5569 32.3726L28.1243 35.8072C27.8764 36.0556 27.474 36.0554 27.2258 35.8072C26.9779 35.5589 26.9777 35.1569 27.2258 34.9087L31.1077 31.0249Z" fill="url(#paint4_linear_1_27)" stroke="#483EA8" stroke-width="0.3"/>
<defs>
<linearGradient id="paint0_linear_1_27" x1="37.5016" y1="5.30298" x2="37.5016" y2="13.2609" gradientUnits="userSpaceOnUse">
<stop stop-color="#40A1FF"/>
<stop offset="1" stop-color="#6163FE"/>
</linearGradient>
<linearGradient id="paint1_linear_1_27" x1="31.3431" y1="0" x2="31.3431" y2="38.4598" gradientUnits="userSpaceOnUse">
<stop stop-color="#40A1FF"/>
<stop offset="1" stop-color="#6163FE"/>
</linearGradient>
<linearGradient id="paint2_linear_1_27" x1="31.2544" y1="20.8435" x2="31.2544" y2="54" gradientUnits="userSpaceOnUse">
<stop stop-color="#40A1FF"/>
<stop offset="1" stop-color="#6163FE"/>
</linearGradient>
<linearGradient id="paint3_linear_1_27" x1="31.5573" y1="30.9874" x2="31.5573" y2="44.581" gradientUnits="userSpaceOnUse">
<stop stop-color="#40A1FF"/>
<stop offset="1" stop-color="#6163FE"/>
</linearGradient>
<linearGradient id="paint4_linear_1_27" x1="31.5573" y1="30.9888" x2="31.5573" y2="35.8437" gradientUnits="userSpaceOnUse">
<stop stop-color="#40A1FF"/>
<stop offset="1" stop-color="#6163FE"/>
</linearGradient>
</defs>
</svg>
