<svg width="19" height="19" viewBox="0 0 19 19" fill="none" xmlns="http://www.w3.org/2000/svg">
<g clip-path="url(#clip0_1_63)">
<path d="M7.12497 11.875L8.38038 10.6196C8.99871 10.0012 10.0012 10.0012 10.6196 10.6196L11.875 11.875M9.49997 10.2916V14.25M15.8333 5.54165V6.33331H3.16663V3.95831C3.16663 2.64664 4.22996 1.58331 5.54164 1.58331H7.57556C8.10444 1.58331 8.61818 1.75984 9.03535 2.08491L9.77986 2.66505C10.197 2.99012 10.7108 3.16665 11.2397 3.16665H13.4583C14.77 3.16665 15.8333 4.22997 15.8333 5.54165ZM2.7502 6.33331H16.2497C17.2578 6.33331 18.0091 7.26276 17.7979 8.2484L16.3697 14.9135C16.0568 16.3735 14.7665 17.4166 13.2733 17.4166H5.72662C4.23342 17.4166 2.94311 16.3735 2.63024 14.9135L1.20201 8.2484C0.990801 7.26276 1.74218 6.33331 2.7502 6.33331Z" stroke="white" stroke-width="1.2" stroke-linecap="round" stroke-linejoin="round"/>
</g>
<defs>
<clipPath id="clip0_1_63">
<rect width="19" height="19" fill="white"/>
</clipPath>
</defs>
</svg>
