<svg width="12" height="12" viewBox="0 0 12 12" fill="none" xmlns="http://www.w3.org/2000/svg">
<path d="M6.3432 6.77878V9.96358C6.3432 10.2624 6.1728 10.4088 5.8776 10.3476C5.7612 10.3236 5.6376 10.284 5.5404 10.218C4.8348 9.74398 4.0488 9.48358 3.2244 9.31918C2.8896 9.25199 2.5464 9.22318 2.214 9.14758C1.6212 9.01198 1.2132 8.49598 1.2108 7.88878C1.206 6.20878 1.2072 4.52878 1.2108 2.84878C1.212 2.27758 1.5708 1.81079 2.082 1.68119C2.3028 1.62599 2.52 1.66199 2.7372 1.69319C3.5064 1.80239 4.2612 1.97519 4.9728 2.29439C5.274 2.42999 5.5596 2.59918 5.8464 2.76598C5.964 2.83438 6.0588 2.84278 6.1728 2.76598C6.9012 2.27398 7.7184 1.99919 8.5704 1.82039C8.8812 1.75559 9.1956 1.70999 9.51 1.66679C10.1292 1.58159 10.6764 1.98598 10.788 2.60638C10.8012 2.67838 10.8108 2.75159 10.8108 2.82479C10.812 4.17958 10.812 5.53438 10.8108 6.89038C10.8108 7.05478 10.7148 7.18198 10.572 7.22038C10.4268 7.25878 10.2696 7.20478 10.2036 7.07278C10.1664 6.99838 10.152 6.90598 10.152 6.82198C10.1484 5.52598 10.1508 4.23118 10.1484 2.93518C10.1484 2.84158 10.1436 2.74438 10.1172 2.65678C10.0512 2.43358 9.8508 2.29439 9.6228 2.32199C8.6784 2.43479 7.7604 2.64598 6.912 3.09598C6.7308 3.19198 6.558 3.30478 6.384 3.41518C6.36 3.43078 6.3468 3.47758 6.3456 3.51118C6.3432 3.82198 6.3456 4.13278 6.3456 4.44358V6.77998H6.3444L6.3432 6.77878ZM5.6772 9.50038V3.53518C5.6772 3.51478 5.682 3.49198 5.6772 3.47278C5.6712 3.45118 5.6604 3.42598 5.6436 3.41518C5.484 3.31558 5.3268 3.21118 5.1612 3.12118C4.2984 2.65198 3.36 2.43479 2.394 2.32078C2.184 2.29559 1.998 2.41319 1.9236 2.61359C1.8888 2.70599 1.8756 2.81038 1.8756 2.90998C1.872 3.73798 1.8732 4.56598 1.8732 5.39278V7.84438C1.8732 8.18998 2.0844 8.45279 2.4144 8.51758C2.5344 8.54038 2.6568 8.54878 2.778 8.56678C3.5232 8.67478 4.2516 8.84758 4.944 9.14758C5.1888 9.25438 5.4264 9.37918 5.6796 9.50158H5.6784L5.6772 9.50038Z" fill="#9EACCE"/>
<path d="M8.3604 9.13081V8.28361C8.3604 8.05921 8.496 7.91281 8.6964 7.91401C8.892 7.91521 9.0252 8.06281 9.0252 8.28121V9.99601C9.0252 10.2108 8.886 10.362 8.694 10.3632C8.502 10.3632 8.3616 10.2108 8.3604 9.99841V9.13081Z" fill="#9EACCE"/>
<path d="M8.2524 6.894C8.2548 6.6504 8.4528 6.456 8.6952 6.4584C8.9436 6.4608 9.1368 6.6588 9.1332 6.9096C9.1308 7.152 8.9316 7.3476 8.6904 7.3464C8.4444 7.3464 8.2488 7.1436 8.2524 6.8952V6.894Z" fill="#9EACCE"/>
<path d="M2.9268 4.00079C3.138 4.04279 3.4008 4.08119 3.6564 4.14839C4.026 4.24679 4.392 4.36079 4.7568 4.47839C4.9584 4.54319 5.0448 4.72559 4.98 4.90679C4.9164 5.08559 4.7268 5.17199 4.5348 5.09999C3.984 4.89239 3.4176 4.75559 2.8368 4.66319C2.6508 4.63319 2.5368 4.48319 2.5512 4.29839C2.5644 4.13639 2.7096 4.00319 2.9256 4.00079H2.9268Z" fill="#9EACCE"/>
<path d="M2.9004 5.7768C3.2304 5.8488 3.5628 5.9124 3.8904 5.9952C4.0548 6.0372 4.14 6.2292 4.0944 6.3924C4.0488 6.5544 3.8796 6.6612 3.7116 6.6276C3.414 6.5688 3.1176 6.5076 2.82 6.4464C2.6388 6.4092 2.5284 6.2508 2.5536 6.0672C2.5764 5.9052 2.724 5.7864 2.9004 5.7756V5.7768Z" fill="#9EACCE"/>
</svg>
