<svg width="19" height="19" viewBox="0 0 19 19" fill="none" xmlns="http://www.w3.org/2000/svg">
<g clip-path="url(#clip0_1_14)">
<path d="M5.10105 -0.0209639C5.16834 -0.0213482 5.23564 -0.0217933 5.30293 -0.022294C5.48409 -0.0234372 5.66524 -0.0236422 5.8464 -0.0235953C5.99803 -0.0236263 6.14965 -0.0240818 6.30128 -0.0245212C6.65887 -0.0255335 7.01646 -0.0257357 7.37405 -0.0254576C7.74254 -0.0251882 8.111 -0.0264335 8.47948 -0.0283914C8.79663 -0.0300154 9.11378 -0.0306364 9.43094 -0.0304682C9.62004 -0.030382 9.80912 -0.0306896 9.99822 -0.0319923C10.1758 -0.0331775 10.3533 -0.0331115 10.5309 -0.0320871C10.5959 -0.0319218 10.661 -0.0321982 10.726 -0.0329534C11.2175 -0.038271 11.2175 -0.038271 11.3765 0.0572287C11.4419 0.121517 11.4915 0.182932 11.541 0.259775C11.564 0.285487 11.5871 0.311199 11.6108 0.337691C11.6377 0.369729 11.6377 0.369729 11.6651 0.402415C11.8188 0.58049 11.9857 0.744262 12.1533 0.90919C12.4909 1.2415 12.4909 1.2415 12.6311 1.40553C12.8065 1.60992 13.0007 1.79631 13.1924 1.98536C13.405 2.19511 13.6152 2.40398 13.8094 2.63122C13.9665 2.80705 14.1378 2.97018 14.3056 3.13575C14.5182 3.3455 14.7285 3.55437 14.9227 3.78161C15.0798 3.95744 15.2511 4.12057 15.4189 4.28614C15.8721 4.73326 15.8721 4.73326 16.0247 4.92432C16.0922 4.99573 16.1511 5.04419 16.2302 5.10029C16.4668 5.28006 16.6277 5.45355 16.6727 5.75537C16.6944 6.01528 16.6919 6.27522 16.6869 6.53574C16.6849 6.67275 16.6859 6.80974 16.6865 6.94676C16.6872 7.21454 16.6852 7.48224 16.6823 7.75001C16.679 8.06235 16.6786 8.37467 16.6783 8.68703C16.6777 9.24465 16.6747 9.80223 16.6703 10.3598C16.666 10.8999 16.6631 11.4399 16.6619 11.98C16.6618 12.0133 16.6618 12.0466 16.6617 12.0808C16.6614 12.2146 16.6611 12.3483 16.6608 12.4821C16.6596 13.0294 16.6574 13.5766 16.6549 14.1239C16.6544 14.2482 16.6539 14.3726 16.6534 14.497C16.6521 14.8238 16.6504 15.1507 16.6477 15.4776C16.6466 15.6126 16.6457 15.7477 16.6452 15.8827C16.6447 16.0296 16.6433 16.1764 16.6419 16.3233C16.6418 16.3653 16.6418 16.4074 16.6418 16.4507C16.6362 16.8612 16.5727 17.2712 16.3768 17.6362C16.3639 17.661 16.351 17.6858 16.3377 17.7113C16.0237 18.2965 15.5241 18.7151 14.8955 18.9289C14.4731 19.0463 14.036 19.021 13.601 19.0198C13.5017 19.0201 13.4024 19.0204 13.3031 19.0208C13.0625 19.0216 12.8218 19.0216 12.5811 19.0213C12.3853 19.021 12.1894 19.0211 11.9936 19.0213C11.9656 19.0214 11.9376 19.0214 11.9088 19.0214C11.852 19.0215 11.7951 19.0216 11.7383 19.0216C11.2063 19.0222 10.6743 19.0219 10.1424 19.0213C9.65686 19.0207 9.17137 19.0213 8.68586 19.0224C8.18599 19.0235 7.68612 19.0239 7.18624 19.0235C7.12958 19.0235 7.07293 19.0234 7.01627 19.0234C6.9884 19.0234 6.96053 19.0234 6.93182 19.0233C6.73653 19.0233 6.54124 19.0236 6.34595 19.0242C6.10752 19.0248 5.86909 19.0248 5.63066 19.024C5.50927 19.0236 5.38791 19.0235 5.26652 19.0241C4.39601 19.0281 3.71488 18.9043 3.06033 18.2799C2.50035 17.6915 2.35715 16.9822 2.36083 16.1965C2.36071 16.1361 2.36053 16.0757 2.36031 16.0153C2.35985 15.8508 2.36007 15.6863 2.36042 15.5218C2.36067 15.3438 2.36028 15.1658 2.35997 14.9878C2.35948 14.6397 2.35959 14.2916 2.35991 13.9435C2.36016 13.6604 2.36019 13.3774 2.36007 13.0943C2.36006 13.054 2.36004 13.0136 2.36002 12.972C2.35999 12.89 2.35995 12.808 2.35991 12.726C2.3596 11.958 2.35996 11.1899 2.36056 10.4219C2.36106 9.76357 2.36097 9.10525 2.36046 8.44692C2.35986 7.68154 2.35963 6.91616 2.35997 6.15077C2.36 6.06908 2.36004 5.98739 2.36007 5.9057C2.36009 5.86551 2.36011 5.82533 2.36013 5.78392C2.36022 5.50137 2.36006 5.21883 2.3598 4.93628C2.35948 4.59172 2.35957 4.24717 2.36016 3.90262C2.36045 3.72698 2.36057 3.55135 2.3602 3.37572C2.35987 3.21466 2.36006 3.05361 2.36064 2.89255C2.36077 2.83457 2.36071 2.77659 2.36044 2.71861C2.3584 2.24726 2.3963 1.78641 2.62314 1.36378C2.63603 1.339 2.64892 1.31423 2.66221 1.2887C2.97887 0.698658 3.4842 0.273849 4.12303 0.0711454C4.44953 -0.0198535 4.76404 -0.0217298 5.10105 -0.0209639Z" fill="#00733B"/>
<path d="M11.207 0C11.3333 0.0631215 11.382 0.0923978 11.4709 0.190475C11.5033 0.225743 11.5033 0.225743 11.5363 0.261723C11.5593 0.2871 11.5823 0.312477 11.606 0.338623C11.8314 0.583678 12.0624 0.821458 12.3001 1.05459C12.4136 1.16658 12.5229 1.27965 12.6265 1.40088C12.8038 1.60657 12.9992 1.79474 13.1924 1.98535C13.405 2.1951 13.6152 2.40397 13.8094 2.63121C13.9665 2.80704 14.1378 2.97017 14.3057 3.13574C14.5183 3.34549 14.7285 3.55436 14.9227 3.7816C15.0798 3.95743 15.2511 4.12056 15.4189 4.28613C15.6346 4.4989 15.8483 4.71073 16.0453 4.94129C16.1514 5.06197 16.2667 5.1734 16.3815 5.28577C16.4279 5.33125 16.4742 5.37681 16.5205 5.42246C16.5406 5.44214 16.5607 5.46183 16.5814 5.4821C16.625 5.5293 16.625 5.5293 16.625 5.56641C14.8371 5.56641 13.0491 5.56641 11.207 5.56641C11.207 3.72949 11.207 1.89258 11.207 0Z" fill="#4E9E77"/>
<path d="M13.2348 10.5101C13.4634 10.6334 13.6422 10.7915 13.7676 11.0215C13.7929 11.1432 13.7929 11.1432 13.8047 11.2441C13.6966 11.2941 13.5883 11.3434 13.48 11.3926C13.4493 11.4067 13.4187 11.4209 13.3872 11.4355C13.3575 11.4489 13.3279 11.4623 13.2973 11.4761C13.2701 11.4885 13.2429 11.5009 13.2149 11.5138C13.1367 11.541 13.1367 11.541 12.9883 11.541C12.973 11.5004 12.9576 11.4599 12.9419 11.4181C12.8909 11.299 12.8441 11.2349 12.7285 11.1699C12.6191 11.1334 12.5457 11.1278 12.4316 11.1282C12.3995 11.1281 12.3673 11.128 12.3342 11.1279C12.2405 11.1292 12.2405 11.1292 12.1347 11.1699C12.1347 11.2679 12.1347 11.3659 12.1347 11.4668C12.1834 11.4815 12.2322 11.4962 12.2809 11.5109C12.3144 11.521 12.348 11.5312 12.3826 11.5417C12.4746 11.5689 12.5667 11.595 12.6592 11.6203C13.1399 11.7534 13.4891 11.8822 13.7629 12.3203C13.8606 12.5768 13.8479 12.9338 13.7629 13.1924C13.5735 13.5459 13.317 13.6903 12.9512 13.8418C12.5832 13.9422 12.1703 13.9193 11.8286 13.7526C11.4838 13.5523 11.2636 13.3366 11.1328 12.9512C11.1273 12.8449 11.1273 12.8449 11.1328 12.7656C11.7053 12.543 11.7053 12.543 11.9121 12.543C11.9175 12.5649 11.923 12.5869 11.9286 12.6095C11.9913 12.8302 12.0545 12.9348 12.2461 13.0625C12.3489 13.0968 12.4155 13.1057 12.5221 13.1066C12.5503 13.1071 12.5786 13.1076 12.6077 13.1082C12.7015 13.0986 12.7602 13.0753 12.8398 13.0254C12.897 12.911 12.888 12.8172 12.8769 12.6914C12.7587 12.5713 12.6079 12.5368 12.4502 12.4919C11.5226 12.2124 11.5226 12.2124 11.2998 11.8008C11.2018 11.5445 11.1862 11.2245 11.2769 10.9647C11.6762 10.2771 12.5692 10.2033 13.2348 10.5101Z" fill="#FBFDFC"/>
<path d="M5.34375 10.3906C5.6474 10.3448 5.97388 10.2971 6.27148 10.3906C6.4779 10.5645 6.58423 10.8182 6.68222 11.0647C6.69363 11.0872 6.70504 11.1096 6.7168 11.1328C6.74129 11.1328 6.76578 11.1328 6.79102 11.1328C6.83971 11.0662 6.83971 11.0662 6.88625 10.9799C6.90426 10.9482 6.92227 10.9166 6.94083 10.884C6.95951 10.8505 6.97819 10.8171 6.99744 10.7826C7.03455 10.7169 7.07171 10.6512 7.10891 10.5856C7.12534 10.5563 7.14178 10.5269 7.15871 10.4967C7.19922 10.4277 7.19922 10.4277 7.23633 10.3906C7.30512 10.3874 7.37403 10.3867 7.44289 10.387C7.48463 10.3871 7.52637 10.3872 7.56937 10.3874C7.61331 10.3877 7.65725 10.388 7.70251 10.3883C7.7466 10.3885 7.79068 10.3886 7.83609 10.3888C7.94542 10.3893 8.05474 10.3899 8.16406 10.3906C8.04223 10.6195 7.91559 10.8449 7.78297 11.0676C7.76925 11.0907 7.75553 11.1138 7.7414 11.1375C7.68464 11.233 7.62783 11.3284 7.57065 11.4236C7.5283 11.4942 7.4863 11.565 7.44434 11.6358C7.41953 11.6773 7.39471 11.7189 7.36914 11.7616C7.29512 11.9046 7.29512 11.9046 7.27344 12.0605C7.31974 12.1744 7.31974 12.1744 7.39346 12.2906C7.40643 12.3124 7.4194 12.3343 7.43276 12.3568C7.47501 12.4277 7.51801 12.4981 7.56104 12.5685C7.59012 12.617 7.61916 12.6655 7.64815 12.714C7.73282 12.8553 7.81844 12.9961 7.9043 13.1367C7.92743 13.1747 7.95057 13.2127 7.9744 13.2518C8.08634 13.4355 8.08634 13.4355 8.19932 13.6185C8.3125 13.801 8.3125 13.801 8.3125 13.8418C7.5226 13.9357 7.5226 13.9357 7.30799 13.7895C7.18597 13.6527 7.11394 13.4923 7.04569 13.3236C7.00113 13.2185 6.94115 13.1256 6.87915 13.03C6.79102 12.8864 6.79102 12.8864 6.79102 12.8027C6.68175 12.8963 6.63708 12.9973 6.57967 13.1279C6.26052 13.7907 6.26052 13.7907 6.00612 13.8852C5.73339 13.9236 5.46454 13.8937 5.19531 13.8418C5.25234 13.6948 5.31956 13.5662 5.40173 13.4313C5.42228 13.3971 5.42228 13.3971 5.44325 13.3623C5.53527 13.2098 5.62907 13.0586 5.72378 12.9078C5.78221 12.8145 5.8402 12.721 5.89815 12.6275C5.92742 12.5805 5.95689 12.5336 5.98657 12.4869C6.0288 12.4204 6.07033 12.3534 6.11174 12.2864C6.14849 12.2279 6.14849 12.2279 6.18598 12.1682C6.24294 12.0415 6.24543 12.0037 6.19727 11.875C6.14862 11.7825 6.09873 11.6941 6.04462 11.6049C6.02176 11.5666 6.02176 11.5666 5.99843 11.5275C5.94976 11.446 5.90072 11.3648 5.85168 11.2836C5.81912 11.2291 5.78657 11.1746 5.75406 11.1201C5.58667 10.8381 5.58667 10.8381 5.4075 10.5636C5.34375 10.4648 5.34375 10.4648 5.34375 10.3906Z" fill="#FBFDFC"/>
<path d="M8.64648 10.3906C8.92814 10.3906 9.2098 10.3906 9.5 10.3906C9.5 11.2846 9.5 12.1786 9.5 13.0996C10.0021 13.0996 10.5042 13.0996 11.0215 13.0996C11.0215 13.3445 11.0215 13.5895 11.0215 13.8418C10.2377 13.8418 9.45398 13.8418 8.64648 13.8418C8.64648 12.7029 8.64648 11.564 8.64648 10.3906Z" fill="#FDFEFD"/>
</g>
<defs>
<clipPath id="clip0_1_14">
<rect width="19" height="19" fill="white"/>
</clipPath>
</defs>
</svg>
